HIERARCHY
ROOT Hips
{
	OFFSET 0.000000 89.005402 0.000000
	CHANNELS 6 Xposition Yposition Zposition Xrotation Yrotation Zrotation
	JOINT Spine
	{
		OFFSET 0.116900 10.681000 0.373400
		CHANNELS 3 Xrotation Yrotation Zrotation
		JOINT Spine1
		{
			OFFSET 0.000000 13.840401 0.053500
			CHANNELS 3 Xrotation Yrotation Zrotation
			JOINT Spine2
			{
				OFFSET 0.000000 14.712700 -0.366200
				CHANNELS 3 Xrotation Yrotation Zrotation
				JOINT Neck
				{
					OFFSET 0.000000 35.415497 -3.314200
					CHANNELS 3 Xrotation Yrotation Zrotation
					JOINT Head
					{
						OFFSET 0.000000 16.899200 1.218300
						CHANNELS 3 Xrotation Yrotation Zrotation
						JOINT HeadTop_End
						{
							OFFSET 0.000000 22.206207 2.192500
							CHANNELS 3 Xrotation Yrotation Zrotation
							End Site
							{
								OFFSET 0.000000 22.314178 0.000000
							}
						}
					}
				}
				JOINT LeftShoulder
				{
					OFFSET 12.896400 26.716293 -4.548400
					CHANNELS 3 Xrotation Yrotation Zrotation
					JOINT LeftArm
					{
						OFFSET 19.027000 -4.857010 -1.718400
						CHANNELS 3 Xrotation Yrotation Zrotation
						JOINT LeftForeArm
						{
							OFFSET 24.179897 0.000000 0.000000
							CHANNELS 3 Xrotation Yrotation Zrotation
							JOINT LeftHand
							{
								OFFSET 27.156403 0.000000 0.000000
								CHANNELS 3 Xrotation Yrotation Zrotation
								JOINT LeftHandIndex1
								{
									OFFSET 16.441200 0.000000 0.000000
									CHANNELS 3 Xrotation Yrotation Zrotation
									JOINT LeftHandIndex2
									{
										OFFSET 4.821899 0.000000 0.000000
										CHANNELS 3 Xrotation Yrotation Zrotation
										JOINT LeftHandIndex3
										{
											OFFSET 6.386497 0.000000 0.000000
											CHANNELS 3 Xrotation Yrotation Zrotation
											JOINT LeftHandIndex4
											{
												OFFSET 5.188988 0.000000 0.000000
												CHANNELS 3 Xrotation Yrotation Zrotation
												End Site
												{
													OFFSET -0.178703 5.185913 0.000177
												}
											}
										}
									}
								}
								JOINT LeftHandThumb1
								{
									OFFSET 6.534897 -5.032593 5.900300
									CHANNELS 3 Xrotation Yrotation Zrotation
									JOINT LeftHandThumb2
									{
										OFFSET 3.818176 -2.204422 2.204423
										CHANNELS 3 Xrotation Yrotation Zrotation
										JOINT LeftHandThumb3
										{
											OFFSET 3.252098 -1.877594 1.877601
											CHANNELS 3 Xrotation Yrotation Zrotation
											JOINT LeftHandThumb4
											{
												OFFSET 5.251778 -3.032120 3.032117
												CHANNELS 3 Xrotation Yrotation Zrotation
												End Site
												{
													OFFSET 0.000023 6.780014 0.000000
												}
											}
										}
									}
								}
							}
						}
					}
				}
				JOINT RightShoulder
				{
					OFFSET -12.896300 26.716293 -4.548400
					CHANNELS 3 Xrotation Yrotation Zrotation
					JOINT RightArm
					{
						OFFSET -19.027000 -4.857010 -1.718400
						CHANNELS 3 Xrotation Yrotation Zrotation
						JOINT RightForeArm
						{
							OFFSET -24.179897 0.000000 0.000000
							CHANNELS 3 Xrotation Yrotation Zrotation
							JOINT RightHand
							{
								OFFSET -27.156403 0.000000 0.000000
								CHANNELS 3 Xrotation Yrotation Zrotation
								JOINT RightHandThumb1
								{
									OFFSET -6.591202 -4.852203 5.988100
									CHANNELS 3 Xrotation Yrotation Zrotation
									JOINT RightHandThumb2
									{
										OFFSET -3.818176 -2.204422 2.204423
										CHANNELS 3 Xrotation Yrotation Zrotation
										JOINT RightHandThumb3
										{
											OFFSET -3.252098 -1.877594 1.877601
											CHANNELS 3 Xrotation Yrotation Zrotation
											JOINT RightHandThumb4
											{
												OFFSET -5.251778 -3.032120 3.032117
												CHANNELS 3 Xrotation Yrotation Zrotation
												End Site
												{
													OFFSET -0.000023 6.780014 0.000000
												}
											}
										}
									}
								}
								JOINT RightHandIndex1
								{
									OFFSET -16.029404 0.000000 0.000000
									CHANNELS 3 Xrotation Yrotation Zrotation
									JOINT RightHandIndex2
									{
										OFFSET -5.213303 0.000000 0.000000
										CHANNELS 3 Xrotation Yrotation Zrotation
										JOINT RightHandIndex3
										{
											OFFSET -6.386528 0.000000 0.000000
											CHANNELS 3 Xrotation Yrotation Zrotation
											JOINT RightHandIndex4
											{
												OFFSET -5.189026 0.000000 0.000000
												CHANNELS 3 Xrotation Yrotation Zrotation
												End Site
												{
													OFFSET 0.236702 5.183624 0.001972
												}
											}
										}
									}
								}
							}
						}
					}
				}
			}
		}
	}
	JOINT LeftUpLeg
	{
		OFFSET 14.073000 -7.904099 -1.463000
		CHANNELS 3 Xrotation Yrotation Zrotation
		JOINT LeftLeg
		{
			OFFSET -0.109806 -34.073280 4.093200
			CHANNELS 3 Xrotation Yrotation Zrotation
			JOINT LeftFoot
			{
				OFFSET 0.109806 -29.899420 -6.319000
				CHANNELS 3 Xrotation Yrotation Zrotation
				JOINT LeftToeBase
				{
					OFFSET 1.551100 -14.988700 20.535801
					CHANNELS 3 Xrotation Yrotation Zrotation
					JOINT LeftToe_End
					{
						OFFSET 0.221200 0.570800 13.248301
						CHANNELS 3 Xrotation Yrotation Zrotation
						End Site
						{
							OFFSET 0.000000 13.262435 0.000000
						}
					}
				}
			}
		}
	}
	JOINT RightUpLeg
	{
		OFFSET -13.839300 -7.904099 -1.463000
		CHANNELS 3 Xrotation Yrotation Zrotation
		JOINT RightLeg
		{
			OFFSET 0.109694 -34.073219 4.093300
			CHANNELS 3 Xrotation Yrotation Zrotation
			JOINT RightFoot
			{
				OFFSET -0.109694 -29.899384 -6.319200
				CHANNELS 3 Xrotation Yrotation Zrotation
				JOINT RightToeBase
				{
					OFFSET -1.551100 -14.988700 20.535801
					CHANNELS 3 Xrotation Yrotation Zrotation
					JOINT RightToe_End
					{
						OFFSET -0.221200 0.570900 13.248299
						CHANNELS 3 Xrotation Yrotation Zrotation
						End Site
						{
							OFFSET 0.000000 13.262440 0.000000
						}
					}
				}
			}
		}
	}
}
MOTION
Frames: 4
Frame Time: 0.033333
-10.158232 54.367790 53.012356 34.925216 -29.141296 21.238398 20.767400 8.349810 3.889825 8.225301 1.650456 2.561618 8.192523 1.604847 2.673551 1.772400 -4.465642 -1.933376 -13.068361 -34.758785 2.505929 -0.000002 0.000001 0.000003 0.577717 -3.544992 -23.128218 -46.085226 -22.623455 -77.000670 -0.000030 -37.404728 -0.000015 -65.543684 -31.668667 -39.021349 -2.236758 -3.350535 -22.446338 0.417810 2.174584 -21.749086 0.267266 1.751012 -17.356467 -0.000001 0.000000 0.000001 2.430880 4.415208 24.467428 5.975005 12.645903 1.348177 -7.335816 -0.421714 13.147350 0.000001 -0.000002 -0.000000 0.089115 13.061489 15.572022 -63.533115 24.508939 32.463363 0.000004 10.616928 -0.000021 37.843606 45.868231 -56.530030 2.979400 -14.866897 2.089297 -2.840572 -31.324678 -7.908975 -6.526610 -18.244038 -16.585204 -0.000000 0.000000 0.000000 -3.543196 1.373243 60.746644 0.992966 -2.876447 38.082587 0.015070 0.375017 -4.608513 -0.000002 -0.000000 0.000001 -49.928816 -7.598282 9.937941 116.105880 4.950716 -1.111691 -48.447307 15.348542 -17.837147 -28.152445 2.116036 -12.336139 -0.000001 0.000000 -0.000000 -92.803201 0.170778 -28.997657 101.036728 7.916834 3.089768 -37.103824 2.224285 3.843216 -0.000013 -0.000000 -0.000000 -0.000000 -0.000000 -0.000000 
-10.295845 54.566757 53.243355 35.237649 -29.248246 21.683356 20.526474 8.399161 3.962207 8.135198 1.657168 2.579710 8.102062 1.612175 2.690852 1.788618 -4.634745 -1.467432 -13.208680 -35.798845 3.527936 0.000003 0.000000 -0.000002 0.582743 -3.502994 -22.869854 -46.407365 -24.212688 -77.361899 0.000000 -34.431711 0.000003 -65.509082 -32.153921 -38.072560 -2.196329 -3.253788 -23.488933 0.313665 1.892966 -18.815245 0.267662 1.752244 -17.369019 0.000003 0.000001 0.000000 3.281806 4.956428 22.832680 5.975089 12.646681 1.348242 -7.335829 -0.421710 13.147353 0.000000 0.000001 0.000000 0.089482 13.035869 15.583766 -62.756762 24.315274 32.336120 -0.000004 10.189913 0.000000 38.190538 44.665373 -55.657965 3.149290 -14.764000 2.035843 -2.840588 -31.324692 -7.908983 -6.526606 -18.244052 -16.585207 0.000002 0.000001 -0.000000 -3.490807 1.334857 60.685452 0.988043 -2.870193 37.984919 0.015091 0.375003 -4.608541 -0.000000 -0.000000 0.000001 -49.570019 -7.100359 9.842378 115.295519 4.762517 -1.105943 -48.296831 15.179037 -17.853566 -27.969365 2.236067 -12.736468 -0.000001 -0.000001 -0.000000 -92.648456 0.266676 -28.914940 100.730844 7.793076 3.123894 -37.197729 2.421808 3.953392 -0.000035 0.000002 -0.000008 -0.000000 0.000002 0.000000 
-10.432878 54.756592 53.464901 35.538782 -29.319089 22.134305 20.273139 8.461909 4.049222 8.041825 1.666463 2.602851 8.008282 1.621901 2.713402 1.776881 -4.791417 -1.030534 -13.363353 -36.756000 4.476421 -0.000003 -0.000001 -0.000003 0.585409 -3.481261 -22.551748 -46.845313 -25.918162 -77.788772 0.000011 -30.581212 0.000002 -65.295557 -32.892733 -37.247176 -2.155133 -3.180223 -24.336927 0.231550 1.632312 -16.145734 0.270997 1.762816 -17.477375 0.000001 0.000001 -0.000000 4.285573 5.554118 20.926349 5.975832 12.651891 1.348765 -7.335817 -0.421707 13.147358 -0.000001 -0.000000 -0.000001 0.085488 12.990949 15.659339 -61.977758 24.196963 32.196562 0.000009 9.805525 -0.000001 38.631792 43.961215 -54.852351 3.370864 -14.630091 1.965697 -2.840584 -31.324675 -7.908977 -6.526598 -18.244036 -16.585207 0.000001 0.000000 -0.000002 -3.410523 1.275901 60.590697 0.980580 -2.860607 37.835365 0.015089 0.375018 -4.608514 -0.000001 -0.000002 0.000002 -49.262651 -6.668914 9.723037 114.501298 4.562272 -1.101518 -48.139969 14.919006 -17.815929 -27.786743 2.368420 -13.166406 -0.000000 0.000001 -0.000000 -92.471739 0.436363 -28.847215 100.442727 7.758124 3.141579 -37.312733 2.434060 4.070745 -0.000002 0.000005 -0.000002 0.000000 0.000002 -0.000000 
-10.569742 54.939041 53.671272 35.845762 -29.379041 22.570362 20.001770 8.526637 4.152036 7.960824 1.674995 2.623053 7.927007 1.629475 2.733509 1.772231 -4.944578 -0.585874 -13.543040 -37.628202 5.318384 -0.000001 -0.000001 -0.000000 0.592201 -3.420424 -22.224734 -47.319076 -27.675812 -78.248525 0.000002 -26.546655 0.000021 -64.554269 -33.981304 -36.338683 -2.134255 -3.157437 -24.637548 0.189917 1.480992 -14.613166 0.269838 1.759167 -17.439910 0.000000 -0.000001 0.000000 5.550178 6.241973 18.559929 5.976060 12.653550 1.348938 -7.335817 -0.421708 13.147367 0.000000 -0.000002 0.000000 0.071204 12.975435 15.838900 -61.152466 24.179541 32.008729 0.000004 9.469593 -0.000002 39.487571 44.043648 -54.504783 3.641091 -14.467142 1.879483 -2.840584 -31.324678 -7.908980 -6.526619 -18.244048 -16.585200 -0.000001 -0.000001 0.000000 -3.303881 1.197249 60.463348 0.970691 -2.847851 37.636883 0.015096 0.375020 -4.608516 -0.000000 -0.000001 -0.000000 -48.976534 -6.192666 9.573183 113.730334 4.434855 -1.081385 -48.075349 14.700027 -17.666899 -27.580746 2.478651 -13.518705 -0.000001 0.000001 -0.000000 -92.279237 0.621319 -28.779350 100.154117 7.773071 3.160933 -37.437500 2.341638 4.187081 -0.000006 0.000017 -0.000000 -0.000000 0.000002 0.000000 
